<mxfile host="Electron" modified="2024-09-03T04:00:44.447Z" agent="Mozilla/5.0 (Macintosh; Intel Mac OS X 10_15_7) AppleWebKit/537.36 (KHTML, like Gecko) draw.io/24.2.5 Chrome/120.0.6099.109 Electron/28.1.0 Safari/537.36" etag="Zr3bsbsfAtRpsVJpTfQj" version="24.2.5" type="device" pages="3">
  <diagram name="light theme" id="w4RH_tEPMtZGMOE8HSVe">
    <mxGraphModel dx="1512" dy="949" grid="0" gridSize="10" guides="1" tooltips="1" connect="1" arrows="1" fold="1" page="0" pageScale="1" pageWidth="850" pageHeight="1100" math="0" shadow="0">
      <root>
        <mxCell id="0" />
        <mxCell id="1" parent="0" />
        <mxCell id="GIkWPNmpepkLRmMzDHtf-4" style="edgeStyle=orthogonalEdgeStyle;rounded=0;sketch=1;hachureGap=4;jiggle=2;curveFitting=1;orthogonalLoop=1;jettySize=auto;html=1;exitX=1;exitY=0.5;exitDx=0;exitDy=0;entryX=0;entryY=0.5;entryDx=0;entryDy=0;fontFamily=Architects Daughter;fontSource=https%3A%2F%2Ffonts.googleapis.com%2Fcss%3Ffamily%3DArchitects%2BDaughter;fontSize=20;" parent="1" source="GIkWPNmpepkLRmMzDHtf-1" target="GIkWPNmpepkLRmMzDHtf-2" edge="1">
          <mxGeometry relative="1" as="geometry" />
        </mxCell>
        <mxCell id="GIkWPNmpepkLRmMzDHtf-35" style="edgeStyle=orthogonalEdgeStyle;curved=1;rounded=0;hachureGap=4;orthogonalLoop=1;jettySize=auto;html=1;strokeColor=#000000;strokeWidth=2;align=center;verticalAlign=middle;fontFamily=Architects Daughter;fontSource=https%3A%2F%2Ffonts.googleapis.com%2Fcss%3Ffamily%3DArchitects%2BDaughter;fontSize=11;fontColor=default;labelBackgroundColor=default;endArrow=classic;flowAnimation=1;dashed=1;dashPattern=1 2;" parent="1" source="GIkWPNmpepkLRmMzDHtf-1" target="GIkWPNmpepkLRmMzDHtf-34" edge="1">
          <mxGeometry relative="1" as="geometry" />
        </mxCell>
        <mxCell id="GIkWPNmpepkLRmMzDHtf-1" value="Code" style="rounded=1;whiteSpace=wrap;html=1;sketch=1;hachureGap=4;jiggle=2;curveFitting=1;fontFamily=Architects Daughter;fontSource=https%3A%2F%2Ffonts.googleapis.com%2Fcss%3Ffamily%3DArchitects%2BDaughter;fontSize=20;" parent="1" vertex="1">
          <mxGeometry x="20" y="405" width="120" height="60" as="geometry" />
        </mxCell>
        <mxCell id="GIkWPNmpepkLRmMzDHtf-6" style="edgeStyle=orthogonalEdgeStyle;rounded=0;sketch=1;hachureGap=4;jiggle=2;curveFitting=1;orthogonalLoop=1;jettySize=auto;html=1;exitX=1;exitY=0.5;exitDx=0;exitDy=0;entryX=0;entryY=0.5;entryDx=0;entryDy=0;fontFamily=Architects Daughter;fontSource=https%3A%2F%2Ffonts.googleapis.com%2Fcss%3Ffamily%3DArchitects%2BDaughter;fontSize=20;" parent="1" source="GIkWPNmpepkLRmMzDHtf-2" target="GIkWPNmpepkLRmMzDHtf-5" edge="1">
          <mxGeometry relative="1" as="geometry" />
        </mxCell>
        <mxCell id="GIkWPNmpepkLRmMzDHtf-2" value="Build" style="rounded=1;whiteSpace=wrap;html=1;sketch=1;hachureGap=4;jiggle=2;curveFitting=1;fontFamily=Architects Daughter;fontSource=https%3A%2F%2Ffonts.googleapis.com%2Fcss%3Ffamily%3DArchitects%2BDaughter;fontSize=20;" parent="1" vertex="1">
          <mxGeometry x="200" y="405" width="120" height="60" as="geometry" />
        </mxCell>
        <mxCell id="GIkWPNmpepkLRmMzDHtf-9" style="edgeStyle=orthogonalEdgeStyle;rounded=0;sketch=1;hachureGap=4;jiggle=2;curveFitting=1;orthogonalLoop=1;jettySize=auto;html=1;exitX=1;exitY=0.5;exitDx=0;exitDy=0;entryX=0;entryY=0.5;entryDx=0;entryDy=0;fontFamily=Architects Daughter;fontSource=https%3A%2F%2Ffonts.googleapis.com%2Fcss%3Ffamily%3DArchitects%2BDaughter;fontSize=20;" parent="1" source="GIkWPNmpepkLRmMzDHtf-3" target="GIkWPNmpepkLRmMzDHtf-8" edge="1">
          <mxGeometry relative="1" as="geometry" />
        </mxCell>
        <mxCell id="GIkWPNmpepkLRmMzDHtf-3" value="Release" style="rounded=1;whiteSpace=wrap;html=1;sketch=1;hachureGap=4;jiggle=2;curveFitting=1;fontFamily=Architects Daughter;fontSource=https%3A%2F%2Ffonts.googleapis.com%2Fcss%3Ffamily%3DArchitects%2BDaughter;fontSize=20;" parent="1" vertex="1">
          <mxGeometry x="560" y="405" width="120" height="60" as="geometry" />
        </mxCell>
        <mxCell id="GIkWPNmpepkLRmMzDHtf-7" style="edgeStyle=orthogonalEdgeStyle;rounded=0;sketch=1;hachureGap=4;jiggle=2;curveFitting=1;orthogonalLoop=1;jettySize=auto;html=1;exitX=1;exitY=0.5;exitDx=0;exitDy=0;entryX=0;entryY=0.5;entryDx=0;entryDy=0;fontFamily=Architects Daughter;fontSource=https%3A%2F%2Ffonts.googleapis.com%2Fcss%3Ffamily%3DArchitects%2BDaughter;fontSize=20;" parent="1" source="GIkWPNmpepkLRmMzDHtf-5" target="GIkWPNmpepkLRmMzDHtf-3" edge="1">
          <mxGeometry relative="1" as="geometry" />
        </mxCell>
        <mxCell id="GIkWPNmpepkLRmMzDHtf-5" value="Test" style="rounded=1;whiteSpace=wrap;html=1;sketch=1;hachureGap=4;jiggle=2;curveFitting=1;fontFamily=Architects Daughter;fontSource=https%3A%2F%2Ffonts.googleapis.com%2Fcss%3Ffamily%3DArchitects%2BDaughter;fontSize=20;" parent="1" vertex="1">
          <mxGeometry x="380" y="405" width="120" height="60" as="geometry" />
        </mxCell>
        <mxCell id="GIkWPNmpepkLRmMzDHtf-11" style="edgeStyle=orthogonalEdgeStyle;rounded=0;sketch=1;hachureGap=4;jiggle=2;curveFitting=1;orthogonalLoop=1;jettySize=auto;html=1;exitX=1;exitY=0.5;exitDx=0;exitDy=0;entryX=1;entryY=0.5;entryDx=0;entryDy=0;fontFamily=Architects Daughter;fontSource=https%3A%2F%2Ffonts.googleapis.com%2Fcss%3Ffamily%3DArchitects%2BDaughter;curved=1;fontSize=20;" parent="1" source="GIkWPNmpepkLRmMzDHtf-8" target="GIkWPNmpepkLRmMzDHtf-10" edge="1">
          <mxGeometry relative="1" as="geometry">
            <Array as="points">
              <mxPoint x="1140" y="435" />
              <mxPoint x="1140" y="665" />
            </Array>
          </mxGeometry>
        </mxCell>
        <mxCell id="GIkWPNmpepkLRmMzDHtf-50" style="edgeStyle=orthogonalEdgeStyle;curved=1;rounded=0;hachureGap=4;orthogonalLoop=1;jettySize=auto;html=1;exitX=1;exitY=0.25;exitDx=0;exitDy=0;entryX=0;entryY=0.25;entryDx=0;entryDy=0;strokeColor=#FF00FF;strokeWidth=2;align=center;verticalAlign=middle;fontFamily=Architects Daughter;fontSource=https%3A%2F%2Ffonts.googleapis.com%2Fcss%3Ffamily%3DArchitects%2BDaughter;fontSize=11;fontColor=default;labelBackgroundColor=default;endArrow=classic;flowAnimation=1;" parent="1" source="GIkWPNmpepkLRmMzDHtf-8" target="GIkWPNmpepkLRmMzDHtf-47" edge="1">
          <mxGeometry relative="1" as="geometry" />
        </mxCell>
        <mxCell id="GIkWPNmpepkLRmMzDHtf-8" value="Deploy" style="rounded=1;whiteSpace=wrap;html=1;sketch=1;hachureGap=4;jiggle=2;curveFitting=1;fontFamily=Architects Daughter;fontSource=https%3A%2F%2Ffonts.googleapis.com%2Fcss%3Ffamily%3DArchitects%2BDaughter;fontSize=20;" parent="1" vertex="1">
          <mxGeometry x="740" y="405" width="120" height="60" as="geometry" />
        </mxCell>
        <mxCell id="GIkWPNmpepkLRmMzDHtf-14" style="edgeStyle=orthogonalEdgeStyle;curved=1;rounded=0;sketch=1;hachureGap=4;jiggle=2;curveFitting=1;orthogonalLoop=1;jettySize=auto;html=1;entryX=1;entryY=0.5;entryDx=0;entryDy=0;strokeColor=default;align=center;verticalAlign=middle;fontFamily=Architects Daughter;fontSource=https%3A%2F%2Ffonts.googleapis.com%2Fcss%3Ffamily%3DArchitects%2BDaughter;fontSize=20;fontColor=default;labelBackgroundColor=default;endArrow=classic;" parent="1" source="GIkWPNmpepkLRmMzDHtf-10" target="GIkWPNmpepkLRmMzDHtf-12" edge="1">
          <mxGeometry relative="1" as="geometry" />
        </mxCell>
        <mxCell id="GIkWPNmpepkLRmMzDHtf-10" value="Operate" style="rounded=1;whiteSpace=wrap;html=1;sketch=1;hachureGap=4;jiggle=2;curveFitting=1;fontFamily=Architects Daughter;fontSource=https%3A%2F%2Ffonts.googleapis.com%2Fcss%3Ffamily%3DArchitects%2BDaughter;fontSize=20;" parent="1" vertex="1">
          <mxGeometry x="880" y="635" width="170" height="60" as="geometry" />
        </mxCell>
        <mxCell id="GIkWPNmpepkLRmMzDHtf-15" style="edgeStyle=orthogonalEdgeStyle;curved=1;rounded=0;sketch=1;hachureGap=4;jiggle=2;curveFitting=1;orthogonalLoop=1;jettySize=auto;html=1;entryX=1;entryY=0.5;entryDx=0;entryDy=0;strokeColor=default;align=center;verticalAlign=middle;fontFamily=Architects Daughter;fontSource=https%3A%2F%2Ffonts.googleapis.com%2Fcss%3Ffamily%3DArchitects%2BDaughter;fontSize=20;fontColor=default;labelBackgroundColor=default;endArrow=classic;" parent="1" source="GIkWPNmpepkLRmMzDHtf-12" target="GIkWPNmpepkLRmMzDHtf-13" edge="1">
          <mxGeometry relative="1" as="geometry" />
        </mxCell>
        <mxCell id="GIkWPNmpepkLRmMzDHtf-12" value="Measure" style="rounded=1;whiteSpace=wrap;html=1;sketch=1;hachureGap=4;jiggle=2;curveFitting=1;fontFamily=Architects Daughter;fontSource=https%3A%2F%2Ffonts.googleapis.com%2Fcss%3Ffamily%3DArchitects%2BDaughter;fontSize=20;" parent="1" vertex="1">
          <mxGeometry x="650" y="635" width="180" height="60" as="geometry" />
        </mxCell>
        <mxCell id="GIkWPNmpepkLRmMzDHtf-16" style="edgeStyle=orthogonalEdgeStyle;curved=1;rounded=0;sketch=1;hachureGap=4;jiggle=2;curveFitting=1;orthogonalLoop=1;jettySize=auto;html=1;strokeColor=default;align=center;verticalAlign=middle;fontFamily=Architects Daughter;fontSource=https%3A%2F%2Ffonts.googleapis.com%2Fcss%3Ffamily%3DArchitects%2BDaughter;fontSize=20;fontColor=default;labelBackgroundColor=default;endArrow=classic;" parent="1" source="GIkWPNmpepkLRmMzDHtf-13" target="GIkWPNmpepkLRmMzDHtf-1" edge="1">
          <mxGeometry relative="1" as="geometry" />
        </mxCell>
        <mxCell id="GIkWPNmpepkLRmMzDHtf-13" value="Plan" style="rounded=1;whiteSpace=wrap;html=1;sketch=1;hachureGap=4;jiggle=2;curveFitting=1;fontFamily=Architects Daughter;fontSource=https%3A%2F%2Ffonts.googleapis.com%2Fcss%3Ffamily%3DArchitects%2BDaughter;fontSize=20;" parent="1" vertex="1">
          <mxGeometry x="202.5" y="635" width="120" height="60" as="geometry" />
        </mxCell>
        <mxCell id="GIkWPNmpepkLRmMzDHtf-21" style="edgeStyle=orthogonalEdgeStyle;curved=1;rounded=0;hachureGap=4;orthogonalLoop=1;jettySize=auto;html=1;exitX=0.8;exitY=0.8;exitDx=0;exitDy=0;exitPerimeter=0;entryX=0;entryY=0.5;entryDx=0;entryDy=0;strokeColor=#000000;align=center;verticalAlign=middle;fontFamily=Architects Daughter;fontSource=https%3A%2F%2Ffonts.googleapis.com%2Fcss%3Ffamily%3DArchitects%2BDaughter;fontSize=11;fontColor=default;labelBackgroundColor=default;endArrow=classic;flowAnimation=1;strokeWidth=2;dashed=1;dashPattern=1 2;" parent="1" source="GIkWPNmpepkLRmMzDHtf-17" target="GIkWPNmpepkLRmMzDHtf-19" edge="1">
          <mxGeometry relative="1" as="geometry">
            <Array as="points">
              <mxPoint x="820" y="310" />
              <mxPoint x="820" y="350" />
            </Array>
          </mxGeometry>
        </mxCell>
        <mxCell id="GIkWPNmpepkLRmMzDHtf-22" style="edgeStyle=orthogonalEdgeStyle;curved=1;rounded=0;hachureGap=4;orthogonalLoop=1;jettySize=auto;html=1;exitX=0.625;exitY=0.2;exitDx=0;exitDy=0;exitPerimeter=0;entryX=0;entryY=0.5;entryDx=0;entryDy=0;strokeColor=#000000;align=center;verticalAlign=middle;fontFamily=Architects Daughter;fontSource=https%3A%2F%2Ffonts.googleapis.com%2Fcss%3Ffamily%3DArchitects%2BDaughter;fontSize=11;fontColor=default;labelBackgroundColor=default;endArrow=classic;flowAnimation=1;strokeWidth=2;dashed=1;dashPattern=1 2;" parent="1" source="GIkWPNmpepkLRmMzDHtf-17" target="GIkWPNmpepkLRmMzDHtf-20" edge="1">
          <mxGeometry relative="1" as="geometry">
            <Array as="points">
              <mxPoint x="816" y="230" />
            </Array>
          </mxGeometry>
        </mxCell>
        <mxCell id="GIkWPNmpepkLRmMzDHtf-23" style="edgeStyle=orthogonalEdgeStyle;curved=1;rounded=0;hachureGap=4;orthogonalLoop=1;jettySize=auto;html=1;exitX=0.875;exitY=0.5;exitDx=0;exitDy=0;exitPerimeter=0;entryX=0;entryY=0.5;entryDx=0;entryDy=0;strokeColor=#000000;align=center;verticalAlign=middle;fontFamily=Architects Daughter;fontSource=https%3A%2F%2Ffonts.googleapis.com%2Fcss%3Ffamily%3DArchitects%2BDaughter;fontSize=11;fontColor=default;labelBackgroundColor=default;endArrow=classic;flowAnimation=1;strokeWidth=2;dashed=1;dashPattern=1 2;" parent="1" source="GIkWPNmpepkLRmMzDHtf-17" target="GIkWPNmpepkLRmMzDHtf-18" edge="1">
          <mxGeometry relative="1" as="geometry">
            <mxPoint x="870" y="290" as="sourcePoint" />
          </mxGeometry>
        </mxCell>
        <mxCell id="GIkWPNmpepkLRmMzDHtf-17" value="Public&lt;div&gt;Cloud&lt;/div&gt;" style="ellipse;shape=cloud;whiteSpace=wrap;html=1;sketch=1;hachureGap=4;jiggle=2;curveFitting=1;fontFamily=Architects Daughter;fontSource=https%3A%2F%2Ffonts.googleapis.com%2Fcss%3Ffamily%3DArchitects%2BDaughter;fontSize=20;fontColor=default;labelBackgroundColor=default;" parent="1" vertex="1">
          <mxGeometry x="735" y="250" width="130" height="80" as="geometry" />
        </mxCell>
        <mxCell id="GIkWPNmpepkLRmMzDHtf-57" style="edgeStyle=orthogonalEdgeStyle;curved=1;rounded=0;hachureGap=4;orthogonalLoop=1;jettySize=auto;html=1;dashed=1;dashPattern=1 2;strokeColor=#000000;strokeWidth=2;align=center;verticalAlign=middle;fontFamily=Architects Daughter;fontSource=https%3A%2F%2Ffonts.googleapis.com%2Fcss%3Ffamily%3DArchitects%2BDaughter;fontSize=11;fontColor=default;labelBackgroundColor=default;endArrow=classic;flowAnimation=1;entryX=0;entryY=0.5;entryDx=0;entryDy=0;entryPerimeter=0;" parent="1" source="GIkWPNmpepkLRmMzDHtf-18" target="GIkWPNmpepkLRmMzDHtf-59" edge="1">
          <mxGeometry relative="1" as="geometry">
            <mxPoint x="1090" y="290" as="targetPoint" />
          </mxGeometry>
        </mxCell>
        <mxCell id="GIkWPNmpepkLRmMzDHtf-18" value="Container" style="rounded=1;whiteSpace=wrap;html=1;sketch=1;hachureGap=4;jiggle=2;curveFitting=1;fontFamily=Architects Daughter;fontSource=https%3A%2F%2Ffonts.googleapis.com%2Fcss%3Ffamily%3DArchitects%2BDaughter;fontSize=20;fontColor=default;labelBackgroundColor=default;" parent="1" vertex="1">
          <mxGeometry x="920" y="270" width="120" height="40" as="geometry" />
        </mxCell>
        <mxCell id="GIkWPNmpepkLRmMzDHtf-58" style="edgeStyle=orthogonalEdgeStyle;curved=1;rounded=0;hachureGap=4;orthogonalLoop=1;jettySize=auto;html=1;exitX=1;exitY=0.5;exitDx=0;exitDy=0;dashed=1;dashPattern=1 2;strokeColor=#000000;strokeWidth=2;align=center;verticalAlign=middle;fontFamily=Architects Daughter;fontSource=https%3A%2F%2Ffonts.googleapis.com%2Fcss%3Ffamily%3DArchitects%2BDaughter;fontSize=11;fontColor=default;labelBackgroundColor=default;endArrow=classic;flowAnimation=1;entryX=0;entryY=0.91;entryDx=0;entryDy=0;entryPerimeter=0;" parent="1" source="GIkWPNmpepkLRmMzDHtf-19" target="GIkWPNmpepkLRmMzDHtf-59" edge="1">
          <mxGeometry relative="1" as="geometry">
            <mxPoint x="1150" y="329.0600000000002" as="targetPoint" />
          </mxGeometry>
        </mxCell>
        <mxCell id="GIkWPNmpepkLRmMzDHtf-19" value="Serverless" style="rounded=1;whiteSpace=wrap;html=1;sketch=1;hachureGap=4;jiggle=2;curveFitting=1;fontFamily=Architects Daughter;fontSource=https%3A%2F%2Ffonts.googleapis.com%2Fcss%3Ffamily%3DArchitects%2BDaughter;fontSize=20;fontColor=default;labelBackgroundColor=default;" parent="1" vertex="1">
          <mxGeometry x="920" y="330" width="120" height="40" as="geometry" />
        </mxCell>
        <mxCell id="GIkWPNmpepkLRmMzDHtf-56" style="edgeStyle=orthogonalEdgeStyle;curved=1;rounded=0;hachureGap=4;orthogonalLoop=1;jettySize=auto;html=1;exitX=1;exitY=0.25;exitDx=0;exitDy=0;dashed=1;dashPattern=1 2;strokeColor=#000000;strokeWidth=2;align=center;verticalAlign=middle;fontFamily=Architects Daughter;fontSource=https%3A%2F%2Ffonts.googleapis.com%2Fcss%3Ffamily%3DArchitects%2BDaughter;fontSize=11;fontColor=default;labelBackgroundColor=default;endArrow=classic;flowAnimation=1;entryX=0.08;entryY=0.1;entryDx=0;entryDy=0;entryPerimeter=0;" parent="1" source="GIkWPNmpepkLRmMzDHtf-20" target="GIkWPNmpepkLRmMzDHtf-59" edge="1">
          <mxGeometry relative="1" as="geometry">
            <mxPoint x="1120.1418181818185" y="288" as="targetPoint" />
            <Array as="points">
              <mxPoint x="1070" y="220" />
              <mxPoint x="1070" y="267" />
            </Array>
          </mxGeometry>
        </mxCell>
        <mxCell id="GIkWPNmpepkLRmMzDHtf-20" value="VM" style="rounded=1;whiteSpace=wrap;html=1;sketch=1;hachureGap=4;jiggle=2;curveFitting=1;fontFamily=Architects Daughter;fontSource=https%3A%2F%2Ffonts.googleapis.com%2Fcss%3Ffamily%3DArchitects%2BDaughter;fontSize=20;fontColor=default;labelBackgroundColor=default;" parent="1" vertex="1">
          <mxGeometry x="920" y="210" width="120" height="40" as="geometry" />
        </mxCell>
        <mxCell id="GIkWPNmpepkLRmMzDHtf-24" style="edgeStyle=orthogonalEdgeStyle;curved=1;rounded=0;hachureGap=4;orthogonalLoop=1;jettySize=auto;html=1;strokeColor=#000000;align=center;verticalAlign=middle;fontFamily=Architects Daughter;fontSource=https%3A%2F%2Ffonts.googleapis.com%2Fcss%3Ffamily%3DArchitects%2BDaughter;fontSize=11;fontColor=default;labelBackgroundColor=default;endArrow=classic;flowAnimation=1;strokeWidth=2;dashed=1;dashPattern=1 2;" parent="1" source="GIkWPNmpepkLRmMzDHtf-8" edge="1">
          <mxGeometry relative="1" as="geometry">
            <mxPoint x="800" y="330" as="targetPoint" />
          </mxGeometry>
        </mxCell>
        <mxCell id="GIkWPNmpepkLRmMzDHtf-25" value="Image&lt;div style=&quot;font-size: 18px;&quot;&gt;Registry&lt;/div&gt;" style="shape=cylinder3;whiteSpace=wrap;html=1;boundedLbl=1;backgroundOutline=1;size=15;sketch=1;hachureGap=4;jiggle=2;curveFitting=1;fontFamily=Architects Daughter;fontSource=https%3A%2F%2Ffonts.googleapis.com%2Fcss%3Ffamily%3DArchitects%2BDaughter;fontSize=18;fontColor=default;labelBackgroundColor=default;" parent="1" vertex="1">
          <mxGeometry x="562.5" y="250" width="115" height="80" as="geometry" />
        </mxCell>
        <mxCell id="GIkWPNmpepkLRmMzDHtf-27" style="edgeStyle=orthogonalEdgeStyle;curved=1;rounded=0;hachureGap=4;orthogonalLoop=1;jettySize=auto;html=1;entryX=0.5;entryY=1;entryDx=0;entryDy=0;entryPerimeter=0;strokeColor=#000000;strokeWidth=2;align=center;verticalAlign=middle;fontFamily=Architects Daughter;fontSource=https%3A%2F%2Ffonts.googleapis.com%2Fcss%3Ffamily%3DArchitects%2BDaughter;fontSize=11;fontColor=default;labelBackgroundColor=default;endArrow=classic;flowAnimation=1;startArrow=classic;startFill=1;dashed=1;dashPattern=1 2;" parent="1" source="GIkWPNmpepkLRmMzDHtf-3" target="GIkWPNmpepkLRmMzDHtf-25" edge="1">
          <mxGeometry relative="1" as="geometry" />
        </mxCell>
        <mxCell id="GIkWPNmpepkLRmMzDHtf-36" style="edgeStyle=orthogonalEdgeStyle;curved=1;rounded=0;hachureGap=4;orthogonalLoop=1;jettySize=auto;html=1;exitX=0.5;exitY=1;exitDx=0;exitDy=0;exitPerimeter=0;entryX=0.5;entryY=0;entryDx=0;entryDy=0;strokeColor=#000000;strokeWidth=2;align=center;verticalAlign=middle;fontFamily=Architects Daughter;fontSource=https%3A%2F%2Ffonts.googleapis.com%2Fcss%3Ffamily%3DArchitects%2BDaughter;fontSize=11;fontColor=default;labelBackgroundColor=default;endArrow=classic;flowAnimation=1;dashed=1;dashPattern=1 2;" parent="1" source="GIkWPNmpepkLRmMzDHtf-28" target="GIkWPNmpepkLRmMzDHtf-2" edge="1">
          <mxGeometry relative="1" as="geometry" />
        </mxCell>
        <mxCell id="GIkWPNmpepkLRmMzDHtf-28" value="Code&lt;div&gt;Repo&lt;/div&gt;" style="shape=cylinder3;whiteSpace=wrap;html=1;boundedLbl=1;backgroundOutline=1;size=15;sketch=1;hachureGap=4;jiggle=2;curveFitting=1;fontFamily=Architects Daughter;fontSource=https%3A%2F%2Ffonts.googleapis.com%2Fcss%3Ffamily%3DArchitects%2BDaughter;fontSize=18;fontColor=default;labelBackgroundColor=default;" parent="1" vertex="1">
          <mxGeometry x="202.5" y="250" width="115" height="80" as="geometry" />
        </mxCell>
        <mxCell id="GIkWPNmpepkLRmMzDHtf-34" value="" style="sketch=0;pointerEvents=1;shadow=0;dashed=0;html=1;labelPosition=center;verticalLabelPosition=bottom;verticalAlign=top;outlineConnect=0;align=center;shape=mxgraph.office.devices.laptop;hachureGap=4;jiggle=2;curveFitting=1;fontFamily=Architects Daughter;fontSource=https%3A%2F%2Ffonts.googleapis.com%2Fcss%3Ffamily%3DArchitects%2BDaughter;fontSize=11;labelBackgroundColor=default;fillColor=#FFFFFF;" parent="1" vertex="1">
          <mxGeometry x="30" y="255" width="100" height="70" as="geometry" />
        </mxCell>
        <mxCell id="GIkWPNmpepkLRmMzDHtf-38" value="" style="image;aspect=fixed;html=1;points=[];align=center;fontSize=12;image=img/lib/azure2/general/Load_Test.svg;sketch=1;hachureGap=4;jiggle=2;curveFitting=1;fontFamily=Architects Daughter;fontSource=https%3A%2F%2Ffonts.googleapis.com%2Fcss%3Ffamily%3DArchitects%2BDaughter;fontColor=default;labelBackgroundColor=default;" parent="1" vertex="1">
          <mxGeometry x="406" y="255" width="68" height="66" as="geometry" />
        </mxCell>
        <mxCell id="GIkWPNmpepkLRmMzDHtf-39" style="edgeStyle=orthogonalEdgeStyle;curved=1;rounded=0;hachureGap=4;orthogonalLoop=1;jettySize=auto;html=1;entryX=0.496;entryY=0.993;entryDx=0;entryDy=0;entryPerimeter=0;strokeColor=#000000;strokeWidth=2;align=center;verticalAlign=middle;fontFamily=Architects Daughter;fontSource=https%3A%2F%2Ffonts.googleapis.com%2Fcss%3Ffamily%3DArchitects%2BDaughter;fontSize=11;fontColor=default;labelBackgroundColor=default;endArrow=classic;flowAnimation=1;dashed=1;dashPattern=1 2;" parent="1" source="GIkWPNmpepkLRmMzDHtf-5" target="GIkWPNmpepkLRmMzDHtf-38" edge="1">
          <mxGeometry relative="1" as="geometry" />
        </mxCell>
        <mxCell id="GIkWPNmpepkLRmMzDHtf-40" value="DEV" style="html=1;shadow=0;dashed=0;align=center;verticalAlign=middle;shape=mxgraph.arrows2.arrow;dy=0;dx=25.37;notch=30.42;sketch=1;hachureGap=4;jiggle=2;curveFitting=1;fontFamily=Architects Daughter;fontSource=https%3A%2F%2Ffonts.googleapis.com%2Fcss%3Ffamily%3DArchitects%2BDaughter;fontSize=30;fontColor=default;labelBackgroundColor=default;" parent="1" vertex="1">
          <mxGeometry x="50" y="745" width="470" height="50" as="geometry" />
        </mxCell>
        <mxCell id="GIkWPNmpepkLRmMzDHtf-41" value="OPS" style="html=1;shadow=0;dashed=0;align=center;verticalAlign=middle;shape=mxgraph.arrows2.arrow;dy=0;dx=25.37;notch=27.26;sketch=1;hachureGap=4;jiggle=2;curveFitting=1;fontFamily=Architects Daughter;fontSource=https%3A%2F%2Ffonts.googleapis.com%2Fcss%3Ffamily%3DArchitects%2BDaughter;fontSize=30;fontColor=default;labelBackgroundColor=default;" parent="1" vertex="1">
          <mxGeometry x="520" y="745" width="470" height="50" as="geometry" />
        </mxCell>
        <mxCell id="GIkWPNmpepkLRmMzDHtf-42" value="Security" style="html=1;shadow=0;dashed=0;align=center;verticalAlign=middle;shape=mxgraph.arrows2.arrow;dy=0;dx=25.37;notch=27.26;sketch=1;hachureGap=4;jiggle=2;curveFitting=1;fontFamily=Architects Daughter;fontSource=https%3A%2F%2Ffonts.googleapis.com%2Fcss%3Ffamily%3DArchitects%2BDaughter;fontSize=30;fontColor=default;labelBackgroundColor=default;" parent="1" vertex="1">
          <mxGeometry x="990" y="745" width="470" height="50" as="geometry" />
        </mxCell>
        <mxCell id="GIkWPNmpepkLRmMzDHtf-51" style="edgeStyle=orthogonalEdgeStyle;curved=1;rounded=0;hachureGap=4;orthogonalLoop=1;jettySize=auto;html=1;exitX=1;exitY=0.25;exitDx=0;exitDy=0;strokeColor=#FF00FF;strokeWidth=2;align=center;verticalAlign=middle;fontFamily=Architects Daughter;fontSource=https%3A%2F%2Ffonts.googleapis.com%2Fcss%3Ffamily%3DArchitects%2BDaughter;fontSize=11;fontColor=default;labelBackgroundColor=default;endArrow=classic;flowAnimation=1;" parent="1" source="GIkWPNmpepkLRmMzDHtf-47" target="GIkWPNmpepkLRmMzDHtf-48" edge="1">
          <mxGeometry relative="1" as="geometry" />
        </mxCell>
        <mxCell id="GIkWPNmpepkLRmMzDHtf-47" value="Threat&lt;div&gt;Detection&lt;/div&gt;" style="rounded=1;whiteSpace=wrap;html=1;sketch=1;hachureGap=4;jiggle=2;curveFitting=1;fontFamily=Architects Daughter;fontSource=https%3A%2F%2Ffonts.googleapis.com%2Fcss%3Ffamily%3DArchitects%2BDaughter;fontSize=20;" parent="1" vertex="1">
          <mxGeometry x="1165" y="405" width="120" height="60" as="geometry" />
        </mxCell>
        <mxCell id="GIkWPNmpepkLRmMzDHtf-52" style="edgeStyle=orthogonalEdgeStyle;curved=1;rounded=0;hachureGap=4;orthogonalLoop=1;jettySize=auto;html=1;exitX=0.5;exitY=1;exitDx=0;exitDy=0;entryX=1;entryY=0.75;entryDx=0;entryDy=0;strokeColor=#FF00FF;strokeWidth=2;align=center;verticalAlign=middle;fontFamily=Architects Daughter;fontSource=https%3A%2F%2Ffonts.googleapis.com%2Fcss%3Ffamily%3DArchitects%2BDaughter;fontSize=11;fontColor=default;labelBackgroundColor=default;endArrow=classic;flowAnimation=1;" parent="1" source="GIkWPNmpepkLRmMzDHtf-48" target="GIkWPNmpepkLRmMzDHtf-49" edge="1">
          <mxGeometry relative="1" as="geometry" />
        </mxCell>
        <mxCell id="GIkWPNmpepkLRmMzDHtf-48" value="Threat&lt;div&gt;Investigation&lt;/div&gt;" style="rounded=1;whiteSpace=wrap;html=1;sketch=1;hachureGap=4;jiggle=2;curveFitting=1;fontFamily=Architects Daughter;fontSource=https%3A%2F%2Ffonts.googleapis.com%2Fcss%3Ffamily%3DArchitects%2BDaughter;fontSize=20;" parent="1" vertex="1">
          <mxGeometry x="1330" y="515" width="150" height="60" as="geometry" />
        </mxCell>
        <mxCell id="GIkWPNmpepkLRmMzDHtf-53" style="edgeStyle=orthogonalEdgeStyle;curved=1;rounded=0;hachureGap=4;orthogonalLoop=1;jettySize=auto;html=1;exitX=0;exitY=0.75;exitDx=0;exitDy=0;entryX=1;entryY=0.75;entryDx=0;entryDy=0;strokeColor=#FF00FF;strokeWidth=2;align=center;verticalAlign=middle;fontFamily=Architects Daughter;fontSource=https%3A%2F%2Ffonts.googleapis.com%2Fcss%3Ffamily%3DArchitects%2BDaughter;fontSize=11;fontColor=default;labelBackgroundColor=default;endArrow=classic;flowAnimation=1;" parent="1" source="GIkWPNmpepkLRmMzDHtf-49" target="GIkWPNmpepkLRmMzDHtf-10" edge="1">
          <mxGeometry relative="1" as="geometry" />
        </mxCell>
        <mxCell id="GIkWPNmpepkLRmMzDHtf-49" value="Threat&lt;div&gt;Response&lt;/div&gt;" style="rounded=1;whiteSpace=wrap;html=1;sketch=1;hachureGap=4;jiggle=2;curveFitting=1;fontFamily=Architects Daughter;fontSource=https%3A%2F%2Ffonts.googleapis.com%2Fcss%3Ffamily%3DArchitects%2BDaughter;fontSize=20;" parent="1" vertex="1">
          <mxGeometry x="1150" y="635" width="150" height="60" as="geometry" />
        </mxCell>
        <mxCell id="GIkWPNmpepkLRmMzDHtf-55" style="edgeStyle=orthogonalEdgeStyle;curved=1;rounded=0;hachureGap=4;orthogonalLoop=1;jettySize=auto;html=1;strokeColor=#000000;strokeWidth=2;align=center;verticalAlign=middle;fontFamily=Architects Daughter;fontSource=https%3A%2F%2Ffonts.googleapis.com%2Fcss%3Ffamily%3DArchitects%2BDaughter;fontSize=11;fontColor=default;labelBackgroundColor=default;endArrow=classic;flowAnimation=1;dashed=1;dashPattern=1 2;exitX=0.5;exitY=0.88;exitDx=0;exitDy=0;exitPerimeter=0;" parent="1" source="GIkWPNmpepkLRmMzDHtf-59" target="GIkWPNmpepkLRmMzDHtf-47" edge="1">
          <mxGeometry relative="1" as="geometry">
            <mxPoint x="1210" y="310" as="sourcePoint" />
          </mxGeometry>
        </mxCell>
        <mxCell id="GIkWPNmpepkLRmMzDHtf-59" value="Logs" style="strokeWidth=1;html=1;shape=mxgraph.flowchart.multi-document;whiteSpace=wrap;sketch=1;hachureGap=4;jiggle=2;curveFitting=1;fontFamily=Architects Daughter;fontSource=https%3A%2F%2Ffonts.googleapis.com%2Fcss%3Ffamily%3DArchitects%2BDaughter;fontSize=20;fontColor=default;labelBackgroundColor=default;" parent="1" vertex="1">
          <mxGeometry x="1120" y="261" width="88" height="60" as="geometry" />
        </mxCell>
        <mxCell id="GIkWPNmpepkLRmMzDHtf-60" style="edgeStyle=orthogonalEdgeStyle;curved=1;rounded=0;hachureGap=4;orthogonalLoop=1;jettySize=auto;html=1;exitX=0.4;exitY=0.1;exitDx=0;exitDy=0;exitPerimeter=0;entryX=0.5;entryY=0;entryDx=0;entryDy=0;entryPerimeter=0;dashed=1;dashPattern=1 2;strokeColor=#FFFFFF;strokeWidth=2;align=center;verticalAlign=middle;fontFamily=Architects Daughter;fontSource=https%3A%2F%2Ffonts.googleapis.com%2Fcss%3Ffamily%3DArchitects%2BDaughter;fontSize=11;fontColor=default;labelBackgroundColor=default;endArrow=classic;flowAnimation=1;" parent="1" source="GIkWPNmpepkLRmMzDHtf-17" target="GIkWPNmpepkLRmMzDHtf-59" edge="1">
          <mxGeometry relative="1" as="geometry">
            <Array as="points">
              <mxPoint x="787" y="180" />
              <mxPoint x="1164" y="180" />
            </Array>
          </mxGeometry>
        </mxCell>
      </root>
    </mxGraphModel>
  </diagram>
  <diagram name="dark theme" id="ugl3kFbCCIgSkcci1D6L">
    <mxGraphModel dx="1354" dy="868" grid="0" gridSize="10" guides="1" tooltips="1" connect="1" arrows="1" fold="1" page="0" pageScale="1" pageWidth="850" pageHeight="1100" math="0" shadow="0">
      <root>
        <mxCell id="1qt5ah6O9wsm0eLy9RBL-0" />
        <mxCell id="1qt5ah6O9wsm0eLy9RBL-1" parent="1qt5ah6O9wsm0eLy9RBL-0" />
        <mxCell id="1qt5ah6O9wsm0eLy9RBL-2" style="edgeStyle=orthogonalEdgeStyle;rounded=0;sketch=1;hachureGap=4;jiggle=2;curveFitting=1;orthogonalLoop=1;jettySize=auto;html=1;exitX=1;exitY=0.5;exitDx=0;exitDy=0;entryX=0;entryY=0.5;entryDx=0;entryDy=0;fontFamily=Architects Daughter;fontSource=https%3A%2F%2Ffonts.googleapis.com%2Fcss%3Ffamily%3DArchitects%2BDaughter;fontSize=20;" edge="1" parent="1qt5ah6O9wsm0eLy9RBL-1" source="1qt5ah6O9wsm0eLy9RBL-4" target="1qt5ah6O9wsm0eLy9RBL-6">
          <mxGeometry relative="1" as="geometry" />
        </mxCell>
        <mxCell id="1qt5ah6O9wsm0eLy9RBL-3" style="edgeStyle=orthogonalEdgeStyle;curved=1;rounded=0;hachureGap=4;orthogonalLoop=1;jettySize=auto;html=1;strokeColor=#FFFFFF;strokeWidth=2;align=center;verticalAlign=middle;fontFamily=Architects Daughter;fontSource=https%3A%2F%2Ffonts.googleapis.com%2Fcss%3Ffamily%3DArchitects%2BDaughter;fontSize=11;fontColor=default;labelBackgroundColor=default;endArrow=classic;flowAnimation=1;dashed=1;dashPattern=1 2;" edge="1" parent="1qt5ah6O9wsm0eLy9RBL-1" source="1qt5ah6O9wsm0eLy9RBL-4" target="1qt5ah6O9wsm0eLy9RBL-35">
          <mxGeometry relative="1" as="geometry" />
        </mxCell>
        <mxCell id="1qt5ah6O9wsm0eLy9RBL-4" value="Code" style="rounded=1;whiteSpace=wrap;html=1;sketch=1;hachureGap=4;jiggle=2;curveFitting=1;fontFamily=Architects Daughter;fontSource=https%3A%2F%2Ffonts.googleapis.com%2Fcss%3Ffamily%3DArchitects%2BDaughter;fontSize=20;" vertex="1" parent="1qt5ah6O9wsm0eLy9RBL-1">
          <mxGeometry x="20" y="405" width="120" height="60" as="geometry" />
        </mxCell>
        <mxCell id="1qt5ah6O9wsm0eLy9RBL-5" style="edgeStyle=orthogonalEdgeStyle;rounded=0;sketch=1;hachureGap=4;jiggle=2;curveFitting=1;orthogonalLoop=1;jettySize=auto;html=1;exitX=1;exitY=0.5;exitDx=0;exitDy=0;entryX=0;entryY=0.5;entryDx=0;entryDy=0;fontFamily=Architects Daughter;fontSource=https%3A%2F%2Ffonts.googleapis.com%2Fcss%3Ffamily%3DArchitects%2BDaughter;fontSize=20;" edge="1" parent="1qt5ah6O9wsm0eLy9RBL-1" source="1qt5ah6O9wsm0eLy9RBL-6" target="1qt5ah6O9wsm0eLy9RBL-10">
          <mxGeometry relative="1" as="geometry" />
        </mxCell>
        <mxCell id="1qt5ah6O9wsm0eLy9RBL-6" value="Build" style="rounded=1;whiteSpace=wrap;html=1;sketch=1;hachureGap=4;jiggle=2;curveFitting=1;fontFamily=Architects Daughter;fontSource=https%3A%2F%2Ffonts.googleapis.com%2Fcss%3Ffamily%3DArchitects%2BDaughter;fontSize=20;" vertex="1" parent="1qt5ah6O9wsm0eLy9RBL-1">
          <mxGeometry x="200" y="405" width="120" height="60" as="geometry" />
        </mxCell>
        <mxCell id="1qt5ah6O9wsm0eLy9RBL-7" style="edgeStyle=orthogonalEdgeStyle;rounded=0;sketch=1;hachureGap=4;jiggle=2;curveFitting=1;orthogonalLoop=1;jettySize=auto;html=1;exitX=1;exitY=0.5;exitDx=0;exitDy=0;entryX=0;entryY=0.5;entryDx=0;entryDy=0;fontFamily=Architects Daughter;fontSource=https%3A%2F%2Ffonts.googleapis.com%2Fcss%3Ffamily%3DArchitects%2BDaughter;fontSize=20;" edge="1" parent="1qt5ah6O9wsm0eLy9RBL-1" source="1qt5ah6O9wsm0eLy9RBL-8" target="1qt5ah6O9wsm0eLy9RBL-13">
          <mxGeometry relative="1" as="geometry" />
        </mxCell>
        <mxCell id="1qt5ah6O9wsm0eLy9RBL-8" value="Release" style="rounded=1;whiteSpace=wrap;html=1;sketch=1;hachureGap=4;jiggle=2;curveFitting=1;fontFamily=Architects Daughter;fontSource=https%3A%2F%2Ffonts.googleapis.com%2Fcss%3Ffamily%3DArchitects%2BDaughter;fontSize=20;" vertex="1" parent="1qt5ah6O9wsm0eLy9RBL-1">
          <mxGeometry x="560" y="405" width="120" height="60" as="geometry" />
        </mxCell>
        <mxCell id="1qt5ah6O9wsm0eLy9RBL-9" style="edgeStyle=orthogonalEdgeStyle;rounded=0;sketch=1;hachureGap=4;jiggle=2;curveFitting=1;orthogonalLoop=1;jettySize=auto;html=1;exitX=1;exitY=0.5;exitDx=0;exitDy=0;entryX=0;entryY=0.5;entryDx=0;entryDy=0;fontFamily=Architects Daughter;fontSource=https%3A%2F%2Ffonts.googleapis.com%2Fcss%3Ffamily%3DArchitects%2BDaughter;fontSize=20;" edge="1" parent="1qt5ah6O9wsm0eLy9RBL-1" source="1qt5ah6O9wsm0eLy9RBL-10" target="1qt5ah6O9wsm0eLy9RBL-8">
          <mxGeometry relative="1" as="geometry" />
        </mxCell>
        <mxCell id="1qt5ah6O9wsm0eLy9RBL-10" value="Test" style="rounded=1;whiteSpace=wrap;html=1;sketch=1;hachureGap=4;jiggle=2;curveFitting=1;fontFamily=Architects Daughter;fontSource=https%3A%2F%2Ffonts.googleapis.com%2Fcss%3Ffamily%3DArchitects%2BDaughter;fontSize=20;" vertex="1" parent="1qt5ah6O9wsm0eLy9RBL-1">
          <mxGeometry x="380" y="405" width="120" height="60" as="geometry" />
        </mxCell>
        <mxCell id="1qt5ah6O9wsm0eLy9RBL-11" style="edgeStyle=orthogonalEdgeStyle;rounded=0;sketch=1;hachureGap=4;jiggle=2;curveFitting=1;orthogonalLoop=1;jettySize=auto;html=1;exitX=1;exitY=0.5;exitDx=0;exitDy=0;entryX=1;entryY=0.5;entryDx=0;entryDy=0;fontFamily=Architects Daughter;fontSource=https%3A%2F%2Ffonts.googleapis.com%2Fcss%3Ffamily%3DArchitects%2BDaughter;curved=1;fontSize=20;" edge="1" parent="1qt5ah6O9wsm0eLy9RBL-1" source="1qt5ah6O9wsm0eLy9RBL-13" target="1qt5ah6O9wsm0eLy9RBL-15">
          <mxGeometry relative="1" as="geometry">
            <Array as="points">
              <mxPoint x="1140" y="435" />
              <mxPoint x="1140" y="665" />
            </Array>
          </mxGeometry>
        </mxCell>
        <mxCell id="1qt5ah6O9wsm0eLy9RBL-12" style="edgeStyle=orthogonalEdgeStyle;curved=1;rounded=0;hachureGap=4;orthogonalLoop=1;jettySize=auto;html=1;exitX=1;exitY=0.25;exitDx=0;exitDy=0;entryX=0;entryY=0.25;entryDx=0;entryDy=0;strokeColor=#FF00FF;strokeWidth=2;align=center;verticalAlign=middle;fontFamily=Architects Daughter;fontSource=https%3A%2F%2Ffonts.googleapis.com%2Fcss%3Ffamily%3DArchitects%2BDaughter;fontSize=11;fontColor=default;labelBackgroundColor=default;endArrow=classic;flowAnimation=1;" edge="1" parent="1qt5ah6O9wsm0eLy9RBL-1" source="1qt5ah6O9wsm0eLy9RBL-13" target="1qt5ah6O9wsm0eLy9RBL-42">
          <mxGeometry relative="1" as="geometry" />
        </mxCell>
        <mxCell id="1qt5ah6O9wsm0eLy9RBL-13" value="Deploy" style="rounded=1;whiteSpace=wrap;html=1;sketch=1;hachureGap=4;jiggle=2;curveFitting=1;fontFamily=Architects Daughter;fontSource=https%3A%2F%2Ffonts.googleapis.com%2Fcss%3Ffamily%3DArchitects%2BDaughter;fontSize=20;" vertex="1" parent="1qt5ah6O9wsm0eLy9RBL-1">
          <mxGeometry x="740" y="405" width="120" height="60" as="geometry" />
        </mxCell>
        <mxCell id="1qt5ah6O9wsm0eLy9RBL-14" style="edgeStyle=orthogonalEdgeStyle;curved=1;rounded=0;sketch=1;hachureGap=4;jiggle=2;curveFitting=1;orthogonalLoop=1;jettySize=auto;html=1;entryX=1;entryY=0.5;entryDx=0;entryDy=0;strokeColor=default;align=center;verticalAlign=middle;fontFamily=Architects Daughter;fontSource=https%3A%2F%2Ffonts.googleapis.com%2Fcss%3Ffamily%3DArchitects%2BDaughter;fontSize=20;fontColor=default;labelBackgroundColor=default;endArrow=classic;" edge="1" parent="1qt5ah6O9wsm0eLy9RBL-1" source="1qt5ah6O9wsm0eLy9RBL-15" target="1qt5ah6O9wsm0eLy9RBL-17">
          <mxGeometry relative="1" as="geometry" />
        </mxCell>
        <mxCell id="1qt5ah6O9wsm0eLy9RBL-15" value="Operate" style="rounded=1;whiteSpace=wrap;html=1;sketch=1;hachureGap=4;jiggle=2;curveFitting=1;fontFamily=Architects Daughter;fontSource=https%3A%2F%2Ffonts.googleapis.com%2Fcss%3Ffamily%3DArchitects%2BDaughter;fontSize=20;" vertex="1" parent="1qt5ah6O9wsm0eLy9RBL-1">
          <mxGeometry x="880" y="635" width="170" height="60" as="geometry" />
        </mxCell>
        <mxCell id="1qt5ah6O9wsm0eLy9RBL-16" style="edgeStyle=orthogonalEdgeStyle;curved=1;rounded=0;sketch=1;hachureGap=4;jiggle=2;curveFitting=1;orthogonalLoop=1;jettySize=auto;html=1;entryX=1;entryY=0.5;entryDx=0;entryDy=0;strokeColor=default;align=center;verticalAlign=middle;fontFamily=Architects Daughter;fontSource=https%3A%2F%2Ffonts.googleapis.com%2Fcss%3Ffamily%3DArchitects%2BDaughter;fontSize=20;fontColor=default;labelBackgroundColor=default;endArrow=classic;" edge="1" parent="1qt5ah6O9wsm0eLy9RBL-1" source="1qt5ah6O9wsm0eLy9RBL-17" target="1qt5ah6O9wsm0eLy9RBL-19">
          <mxGeometry relative="1" as="geometry" />
        </mxCell>
        <mxCell id="1qt5ah6O9wsm0eLy9RBL-17" value="Measure" style="rounded=1;whiteSpace=wrap;html=1;sketch=1;hachureGap=4;jiggle=2;curveFitting=1;fontFamily=Architects Daughter;fontSource=https%3A%2F%2Ffonts.googleapis.com%2Fcss%3Ffamily%3DArchitects%2BDaughter;fontSize=20;" vertex="1" parent="1qt5ah6O9wsm0eLy9RBL-1">
          <mxGeometry x="650" y="635" width="180" height="60" as="geometry" />
        </mxCell>
        <mxCell id="1qt5ah6O9wsm0eLy9RBL-18" style="edgeStyle=orthogonalEdgeStyle;curved=1;rounded=0;sketch=1;hachureGap=4;jiggle=2;curveFitting=1;orthogonalLoop=1;jettySize=auto;html=1;strokeColor=default;align=center;verticalAlign=middle;fontFamily=Architects Daughter;fontSource=https%3A%2F%2Ffonts.googleapis.com%2Fcss%3Ffamily%3DArchitects%2BDaughter;fontSize=20;fontColor=default;labelBackgroundColor=default;endArrow=classic;" edge="1" parent="1qt5ah6O9wsm0eLy9RBL-1" source="1qt5ah6O9wsm0eLy9RBL-19" target="1qt5ah6O9wsm0eLy9RBL-4">
          <mxGeometry relative="1" as="geometry" />
        </mxCell>
        <mxCell id="1qt5ah6O9wsm0eLy9RBL-19" value="Plan" style="rounded=1;whiteSpace=wrap;html=1;sketch=1;hachureGap=4;jiggle=2;curveFitting=1;fontFamily=Architects Daughter;fontSource=https%3A%2F%2Ffonts.googleapis.com%2Fcss%3Ffamily%3DArchitects%2BDaughter;fontSize=20;" vertex="1" parent="1qt5ah6O9wsm0eLy9RBL-1">
          <mxGeometry x="202.5" y="635" width="120" height="60" as="geometry" />
        </mxCell>
        <mxCell id="1qt5ah6O9wsm0eLy9RBL-20" style="edgeStyle=orthogonalEdgeStyle;curved=1;rounded=0;hachureGap=4;orthogonalLoop=1;jettySize=auto;html=1;exitX=0.8;exitY=0.8;exitDx=0;exitDy=0;exitPerimeter=0;entryX=0;entryY=0.5;entryDx=0;entryDy=0;strokeColor=#FFFFFF;align=center;verticalAlign=middle;fontFamily=Architects Daughter;fontSource=https%3A%2F%2Ffonts.googleapis.com%2Fcss%3Ffamily%3DArchitects%2BDaughter;fontSize=11;fontColor=default;labelBackgroundColor=default;endArrow=classic;flowAnimation=1;strokeWidth=2;dashed=1;dashPattern=1 2;" edge="1" parent="1qt5ah6O9wsm0eLy9RBL-1" source="1qt5ah6O9wsm0eLy9RBL-23" target="1qt5ah6O9wsm0eLy9RBL-27">
          <mxGeometry relative="1" as="geometry">
            <Array as="points">
              <mxPoint x="820" y="310" />
              <mxPoint x="820" y="350" />
            </Array>
          </mxGeometry>
        </mxCell>
        <mxCell id="1qt5ah6O9wsm0eLy9RBL-21" style="edgeStyle=orthogonalEdgeStyle;curved=1;rounded=0;hachureGap=4;orthogonalLoop=1;jettySize=auto;html=1;exitX=0.625;exitY=0.2;exitDx=0;exitDy=0;exitPerimeter=0;entryX=0;entryY=0.5;entryDx=0;entryDy=0;strokeColor=#FFFFFF;align=center;verticalAlign=middle;fontFamily=Architects Daughter;fontSource=https%3A%2F%2Ffonts.googleapis.com%2Fcss%3Ffamily%3DArchitects%2BDaughter;fontSize=11;fontColor=default;labelBackgroundColor=default;endArrow=classic;flowAnimation=1;strokeWidth=2;dashed=1;dashPattern=1 2;" edge="1" parent="1qt5ah6O9wsm0eLy9RBL-1" source="1qt5ah6O9wsm0eLy9RBL-23" target="1qt5ah6O9wsm0eLy9RBL-29">
          <mxGeometry relative="1" as="geometry">
            <Array as="points">
              <mxPoint x="816" y="230" />
            </Array>
          </mxGeometry>
        </mxCell>
        <mxCell id="1qt5ah6O9wsm0eLy9RBL-22" style="edgeStyle=orthogonalEdgeStyle;curved=1;rounded=0;hachureGap=4;orthogonalLoop=1;jettySize=auto;html=1;exitX=0.875;exitY=0.5;exitDx=0;exitDy=0;exitPerimeter=0;entryX=0;entryY=0.5;entryDx=0;entryDy=0;strokeColor=#FFFFFF;align=center;verticalAlign=middle;fontFamily=Architects Daughter;fontSource=https%3A%2F%2Ffonts.googleapis.com%2Fcss%3Ffamily%3DArchitects%2BDaughter;fontSize=11;fontColor=default;labelBackgroundColor=default;endArrow=classic;flowAnimation=1;strokeWidth=2;dashed=1;dashPattern=1 2;" edge="1" parent="1qt5ah6O9wsm0eLy9RBL-1" source="1qt5ah6O9wsm0eLy9RBL-23" target="1qt5ah6O9wsm0eLy9RBL-25">
          <mxGeometry relative="1" as="geometry">
            <mxPoint x="870" y="290" as="sourcePoint" />
          </mxGeometry>
        </mxCell>
        <mxCell id="1qt5ah6O9wsm0eLy9RBL-23" value="Public&lt;div&gt;Cloud&lt;/div&gt;" style="ellipse;shape=cloud;whiteSpace=wrap;html=1;sketch=1;hachureGap=4;jiggle=2;curveFitting=1;fontFamily=Architects Daughter;fontSource=https%3A%2F%2Ffonts.googleapis.com%2Fcss%3Ffamily%3DArchitects%2BDaughter;fontSize=20;fontColor=default;labelBackgroundColor=default;" vertex="1" parent="1qt5ah6O9wsm0eLy9RBL-1">
          <mxGeometry x="735" y="250" width="130" height="80" as="geometry" />
        </mxCell>
        <mxCell id="1qt5ah6O9wsm0eLy9RBL-24" style="edgeStyle=orthogonalEdgeStyle;curved=1;rounded=0;hachureGap=4;orthogonalLoop=1;jettySize=auto;html=1;dashed=1;dashPattern=1 2;strokeColor=#FFFFFF;strokeWidth=2;align=center;verticalAlign=middle;fontFamily=Architects Daughter;fontSource=https%3A%2F%2Ffonts.googleapis.com%2Fcss%3Ffamily%3DArchitects%2BDaughter;fontSize=11;fontColor=default;labelBackgroundColor=default;endArrow=classic;flowAnimation=1;entryX=0;entryY=0.5;entryDx=0;entryDy=0;entryPerimeter=0;" edge="1" parent="1qt5ah6O9wsm0eLy9RBL-1" source="1qt5ah6O9wsm0eLy9RBL-25" target="1qt5ah6O9wsm0eLy9RBL-48">
          <mxGeometry relative="1" as="geometry">
            <mxPoint x="1090" y="290" as="targetPoint" />
          </mxGeometry>
        </mxCell>
        <mxCell id="1qt5ah6O9wsm0eLy9RBL-25" value="Container" style="rounded=1;whiteSpace=wrap;html=1;sketch=1;hachureGap=4;jiggle=2;curveFitting=1;fontFamily=Architects Daughter;fontSource=https%3A%2F%2Ffonts.googleapis.com%2Fcss%3Ffamily%3DArchitects%2BDaughter;fontSize=20;fontColor=default;labelBackgroundColor=default;" vertex="1" parent="1qt5ah6O9wsm0eLy9RBL-1">
          <mxGeometry x="920" y="270" width="120" height="40" as="geometry" />
        </mxCell>
        <mxCell id="1qt5ah6O9wsm0eLy9RBL-26" style="edgeStyle=orthogonalEdgeStyle;curved=1;rounded=0;hachureGap=4;orthogonalLoop=1;jettySize=auto;html=1;exitX=1;exitY=0.5;exitDx=0;exitDy=0;dashed=1;dashPattern=1 2;strokeColor=#FFFFFF;strokeWidth=2;align=center;verticalAlign=middle;fontFamily=Architects Daughter;fontSource=https%3A%2F%2Ffonts.googleapis.com%2Fcss%3Ffamily%3DArchitects%2BDaughter;fontSize=11;fontColor=default;labelBackgroundColor=default;endArrow=classic;flowAnimation=1;entryX=0;entryY=0.91;entryDx=0;entryDy=0;entryPerimeter=0;" edge="1" parent="1qt5ah6O9wsm0eLy9RBL-1" source="1qt5ah6O9wsm0eLy9RBL-27" target="1qt5ah6O9wsm0eLy9RBL-48">
          <mxGeometry relative="1" as="geometry">
            <mxPoint x="1150" y="329.0600000000002" as="targetPoint" />
          </mxGeometry>
        </mxCell>
        <mxCell id="1qt5ah6O9wsm0eLy9RBL-27" value="Serverless" style="rounded=1;whiteSpace=wrap;html=1;sketch=1;hachureGap=4;jiggle=2;curveFitting=1;fontFamily=Architects Daughter;fontSource=https%3A%2F%2Ffonts.googleapis.com%2Fcss%3Ffamily%3DArchitects%2BDaughter;fontSize=20;fontColor=default;labelBackgroundColor=default;" vertex="1" parent="1qt5ah6O9wsm0eLy9RBL-1">
          <mxGeometry x="920" y="330" width="120" height="40" as="geometry" />
        </mxCell>
        <mxCell id="1qt5ah6O9wsm0eLy9RBL-28" style="edgeStyle=orthogonalEdgeStyle;curved=1;rounded=0;hachureGap=4;orthogonalLoop=1;jettySize=auto;html=1;exitX=1;exitY=0.25;exitDx=0;exitDy=0;dashed=1;dashPattern=1 2;strokeColor=#FFFFFF;strokeWidth=2;align=center;verticalAlign=middle;fontFamily=Architects Daughter;fontSource=https%3A%2F%2Ffonts.googleapis.com%2Fcss%3Ffamily%3DArchitects%2BDaughter;fontSize=11;fontColor=default;labelBackgroundColor=default;endArrow=classic;flowAnimation=1;entryX=0.08;entryY=0.1;entryDx=0;entryDy=0;entryPerimeter=0;" edge="1" parent="1qt5ah6O9wsm0eLy9RBL-1" source="1qt5ah6O9wsm0eLy9RBL-29" target="1qt5ah6O9wsm0eLy9RBL-48">
          <mxGeometry relative="1" as="geometry">
            <mxPoint x="1120.1418181818185" y="288" as="targetPoint" />
            <Array as="points">
              <mxPoint x="1070" y="220" />
              <mxPoint x="1070" y="267" />
            </Array>
          </mxGeometry>
        </mxCell>
        <mxCell id="1qt5ah6O9wsm0eLy9RBL-29" value="VM" style="rounded=1;whiteSpace=wrap;html=1;sketch=1;hachureGap=4;jiggle=2;curveFitting=1;fontFamily=Architects Daughter;fontSource=https%3A%2F%2Ffonts.googleapis.com%2Fcss%3Ffamily%3DArchitects%2BDaughter;fontSize=20;fontColor=default;labelBackgroundColor=default;" vertex="1" parent="1qt5ah6O9wsm0eLy9RBL-1">
          <mxGeometry x="920" y="210" width="120" height="40" as="geometry" />
        </mxCell>
        <mxCell id="1qt5ah6O9wsm0eLy9RBL-30" style="edgeStyle=orthogonalEdgeStyle;curved=1;rounded=0;hachureGap=4;orthogonalLoop=1;jettySize=auto;html=1;strokeColor=#FFFFFF;align=center;verticalAlign=middle;fontFamily=Architects Daughter;fontSource=https%3A%2F%2Ffonts.googleapis.com%2Fcss%3Ffamily%3DArchitects%2BDaughter;fontSize=11;fontColor=default;labelBackgroundColor=default;endArrow=classic;flowAnimation=1;strokeWidth=2;dashed=1;dashPattern=1 2;" edge="1" parent="1qt5ah6O9wsm0eLy9RBL-1" source="1qt5ah6O9wsm0eLy9RBL-13">
          <mxGeometry relative="1" as="geometry">
            <mxPoint x="800" y="330" as="targetPoint" />
          </mxGeometry>
        </mxCell>
        <mxCell id="1qt5ah6O9wsm0eLy9RBL-31" value="Image&lt;div style=&quot;font-size: 18px;&quot;&gt;Registry&lt;/div&gt;" style="shape=cylinder3;whiteSpace=wrap;html=1;boundedLbl=1;backgroundOutline=1;size=15;sketch=1;hachureGap=4;jiggle=2;curveFitting=1;fontFamily=Architects Daughter;fontSource=https%3A%2F%2Ffonts.googleapis.com%2Fcss%3Ffamily%3DArchitects%2BDaughter;fontSize=18;fontColor=default;labelBackgroundColor=default;" vertex="1" parent="1qt5ah6O9wsm0eLy9RBL-1">
          <mxGeometry x="562.5" y="250" width="115" height="80" as="geometry" />
        </mxCell>
        <mxCell id="1qt5ah6O9wsm0eLy9RBL-32" style="edgeStyle=orthogonalEdgeStyle;curved=1;rounded=0;hachureGap=4;orthogonalLoop=1;jettySize=auto;html=1;entryX=0.5;entryY=1;entryDx=0;entryDy=0;entryPerimeter=0;strokeColor=#FFFFFF;strokeWidth=2;align=center;verticalAlign=middle;fontFamily=Architects Daughter;fontSource=https%3A%2F%2Ffonts.googleapis.com%2Fcss%3Ffamily%3DArchitects%2BDaughter;fontSize=11;fontColor=default;labelBackgroundColor=default;endArrow=classic;flowAnimation=1;startArrow=classic;startFill=1;dashed=1;dashPattern=1 2;" edge="1" parent="1qt5ah6O9wsm0eLy9RBL-1" source="1qt5ah6O9wsm0eLy9RBL-8" target="1qt5ah6O9wsm0eLy9RBL-31">
          <mxGeometry relative="1" as="geometry" />
        </mxCell>
        <mxCell id="1qt5ah6O9wsm0eLy9RBL-33" style="edgeStyle=orthogonalEdgeStyle;curved=1;rounded=0;hachureGap=4;orthogonalLoop=1;jettySize=auto;html=1;exitX=0.5;exitY=1;exitDx=0;exitDy=0;exitPerimeter=0;entryX=0.5;entryY=0;entryDx=0;entryDy=0;strokeColor=#FFFFFF;strokeWidth=2;align=center;verticalAlign=middle;fontFamily=Architects Daughter;fontSource=https%3A%2F%2Ffonts.googleapis.com%2Fcss%3Ffamily%3DArchitects%2BDaughter;fontSize=11;fontColor=default;labelBackgroundColor=default;endArrow=classic;flowAnimation=1;dashed=1;dashPattern=1 2;" edge="1" parent="1qt5ah6O9wsm0eLy9RBL-1" source="1qt5ah6O9wsm0eLy9RBL-34" target="1qt5ah6O9wsm0eLy9RBL-6">
          <mxGeometry relative="1" as="geometry" />
        </mxCell>
        <mxCell id="1qt5ah6O9wsm0eLy9RBL-34" value="Code&lt;div&gt;Repo&lt;/div&gt;" style="shape=cylinder3;whiteSpace=wrap;html=1;boundedLbl=1;backgroundOutline=1;size=15;sketch=1;hachureGap=4;jiggle=2;curveFitting=1;fontFamily=Architects Daughter;fontSource=https%3A%2F%2Ffonts.googleapis.com%2Fcss%3Ffamily%3DArchitects%2BDaughter;fontSize=18;fontColor=default;labelBackgroundColor=default;" vertex="1" parent="1qt5ah6O9wsm0eLy9RBL-1">
          <mxGeometry x="202.5" y="250" width="115" height="80" as="geometry" />
        </mxCell>
        <mxCell id="1qt5ah6O9wsm0eLy9RBL-35" value="" style="sketch=0;pointerEvents=1;shadow=0;dashed=0;html=1;labelPosition=center;verticalLabelPosition=bottom;verticalAlign=top;outlineConnect=0;align=center;shape=mxgraph.office.devices.laptop;hachureGap=4;jiggle=2;curveFitting=1;fontFamily=Architects Daughter;fontSource=https%3A%2F%2Ffonts.googleapis.com%2Fcss%3Ffamily%3DArchitects%2BDaughter;fontSize=11;labelBackgroundColor=default;fillColor=#FFFFFF;" vertex="1" parent="1qt5ah6O9wsm0eLy9RBL-1">
          <mxGeometry x="30" y="255" width="100" height="70" as="geometry" />
        </mxCell>
        <mxCell id="1qt5ah6O9wsm0eLy9RBL-36" value="" style="image;aspect=fixed;html=1;points=[];align=center;fontSize=12;image=img/lib/azure2/general/Load_Test.svg;sketch=1;hachureGap=4;jiggle=2;curveFitting=1;fontFamily=Architects Daughter;fontSource=https%3A%2F%2Ffonts.googleapis.com%2Fcss%3Ffamily%3DArchitects%2BDaughter;fontColor=default;labelBackgroundColor=default;" vertex="1" parent="1qt5ah6O9wsm0eLy9RBL-1">
          <mxGeometry x="406" y="255" width="68" height="66" as="geometry" />
        </mxCell>
        <mxCell id="1qt5ah6O9wsm0eLy9RBL-37" style="edgeStyle=orthogonalEdgeStyle;curved=1;rounded=0;hachureGap=4;orthogonalLoop=1;jettySize=auto;html=1;entryX=0.496;entryY=0.993;entryDx=0;entryDy=0;entryPerimeter=0;strokeColor=#FFFFFF;strokeWidth=2;align=center;verticalAlign=middle;fontFamily=Architects Daughter;fontSource=https%3A%2F%2Ffonts.googleapis.com%2Fcss%3Ffamily%3DArchitects%2BDaughter;fontSize=11;fontColor=default;labelBackgroundColor=default;endArrow=classic;flowAnimation=1;dashed=1;dashPattern=1 2;" edge="1" parent="1qt5ah6O9wsm0eLy9RBL-1" source="1qt5ah6O9wsm0eLy9RBL-10" target="1qt5ah6O9wsm0eLy9RBL-36">
          <mxGeometry relative="1" as="geometry" />
        </mxCell>
        <mxCell id="1qt5ah6O9wsm0eLy9RBL-38" value="DEV" style="html=1;shadow=0;dashed=0;align=center;verticalAlign=middle;shape=mxgraph.arrows2.arrow;dy=0;dx=25.37;notch=30.42;sketch=1;hachureGap=4;jiggle=2;curveFitting=1;fontFamily=Architects Daughter;fontSource=https%3A%2F%2Ffonts.googleapis.com%2Fcss%3Ffamily%3DArchitects%2BDaughter;fontSize=30;fontColor=default;labelBackgroundColor=default;" vertex="1" parent="1qt5ah6O9wsm0eLy9RBL-1">
          <mxGeometry x="50" y="745" width="470" height="50" as="geometry" />
        </mxCell>
        <mxCell id="1qt5ah6O9wsm0eLy9RBL-39" value="OPS" style="html=1;shadow=0;dashed=0;align=center;verticalAlign=middle;shape=mxgraph.arrows2.arrow;dy=0;dx=25.37;notch=27.26;sketch=1;hachureGap=4;jiggle=2;curveFitting=1;fontFamily=Architects Daughter;fontSource=https%3A%2F%2Ffonts.googleapis.com%2Fcss%3Ffamily%3DArchitects%2BDaughter;fontSize=30;fontColor=default;labelBackgroundColor=default;" vertex="1" parent="1qt5ah6O9wsm0eLy9RBL-1">
          <mxGeometry x="520" y="745" width="470" height="50" as="geometry" />
        </mxCell>
        <mxCell id="1qt5ah6O9wsm0eLy9RBL-40" value="Security" style="html=1;shadow=0;dashed=0;align=center;verticalAlign=middle;shape=mxgraph.arrows2.arrow;dy=0;dx=25.37;notch=27.26;sketch=1;hachureGap=4;jiggle=2;curveFitting=1;fontFamily=Architects Daughter;fontSource=https%3A%2F%2Ffonts.googleapis.com%2Fcss%3Ffamily%3DArchitects%2BDaughter;fontSize=30;fontColor=default;labelBackgroundColor=default;" vertex="1" parent="1qt5ah6O9wsm0eLy9RBL-1">
          <mxGeometry x="990" y="745" width="470" height="50" as="geometry" />
        </mxCell>
        <mxCell id="1qt5ah6O9wsm0eLy9RBL-41" style="edgeStyle=orthogonalEdgeStyle;curved=1;rounded=0;hachureGap=4;orthogonalLoop=1;jettySize=auto;html=1;exitX=1;exitY=0.25;exitDx=0;exitDy=0;strokeColor=#FF00FF;strokeWidth=2;align=center;verticalAlign=middle;fontFamily=Architects Daughter;fontSource=https%3A%2F%2Ffonts.googleapis.com%2Fcss%3Ffamily%3DArchitects%2BDaughter;fontSize=11;fontColor=default;labelBackgroundColor=default;endArrow=classic;flowAnimation=1;" edge="1" parent="1qt5ah6O9wsm0eLy9RBL-1" source="1qt5ah6O9wsm0eLy9RBL-42" target="1qt5ah6O9wsm0eLy9RBL-44">
          <mxGeometry relative="1" as="geometry" />
        </mxCell>
        <mxCell id="1qt5ah6O9wsm0eLy9RBL-42" value="Threat&lt;div&gt;Detection&lt;/div&gt;" style="rounded=1;whiteSpace=wrap;html=1;sketch=1;hachureGap=4;jiggle=2;curveFitting=1;fontFamily=Architects Daughter;fontSource=https%3A%2F%2Ffonts.googleapis.com%2Fcss%3Ffamily%3DArchitects%2BDaughter;fontSize=20;" vertex="1" parent="1qt5ah6O9wsm0eLy9RBL-1">
          <mxGeometry x="1165" y="405" width="120" height="60" as="geometry" />
        </mxCell>
        <mxCell id="1qt5ah6O9wsm0eLy9RBL-43" style="edgeStyle=orthogonalEdgeStyle;curved=1;rounded=0;hachureGap=4;orthogonalLoop=1;jettySize=auto;html=1;exitX=0.5;exitY=1;exitDx=0;exitDy=0;entryX=1;entryY=0.75;entryDx=0;entryDy=0;strokeColor=#FF00FF;strokeWidth=2;align=center;verticalAlign=middle;fontFamily=Architects Daughter;fontSource=https%3A%2F%2Ffonts.googleapis.com%2Fcss%3Ffamily%3DArchitects%2BDaughter;fontSize=11;fontColor=default;labelBackgroundColor=default;endArrow=classic;flowAnimation=1;" edge="1" parent="1qt5ah6O9wsm0eLy9RBL-1" source="1qt5ah6O9wsm0eLy9RBL-44" target="1qt5ah6O9wsm0eLy9RBL-46">
          <mxGeometry relative="1" as="geometry" />
        </mxCell>
        <mxCell id="1qt5ah6O9wsm0eLy9RBL-44" value="Threat&lt;div&gt;Investigation&lt;/div&gt;" style="rounded=1;whiteSpace=wrap;html=1;sketch=1;hachureGap=4;jiggle=2;curveFitting=1;fontFamily=Architects Daughter;fontSource=https%3A%2F%2Ffonts.googleapis.com%2Fcss%3Ffamily%3DArchitects%2BDaughter;fontSize=20;" vertex="1" parent="1qt5ah6O9wsm0eLy9RBL-1">
          <mxGeometry x="1330" y="515" width="150" height="60" as="geometry" />
        </mxCell>
        <mxCell id="1qt5ah6O9wsm0eLy9RBL-45" style="edgeStyle=orthogonalEdgeStyle;curved=1;rounded=0;hachureGap=4;orthogonalLoop=1;jettySize=auto;html=1;exitX=0;exitY=0.75;exitDx=0;exitDy=0;entryX=1;entryY=0.75;entryDx=0;entryDy=0;strokeColor=#FF00FF;strokeWidth=2;align=center;verticalAlign=middle;fontFamily=Architects Daughter;fontSource=https%3A%2F%2Ffonts.googleapis.com%2Fcss%3Ffamily%3DArchitects%2BDaughter;fontSize=11;fontColor=default;labelBackgroundColor=default;endArrow=classic;flowAnimation=1;" edge="1" parent="1qt5ah6O9wsm0eLy9RBL-1" source="1qt5ah6O9wsm0eLy9RBL-46" target="1qt5ah6O9wsm0eLy9RBL-15">
          <mxGeometry relative="1" as="geometry" />
        </mxCell>
        <mxCell id="1qt5ah6O9wsm0eLy9RBL-46" value="Threat&lt;div&gt;Response&lt;/div&gt;" style="rounded=1;whiteSpace=wrap;html=1;sketch=1;hachureGap=4;jiggle=2;curveFitting=1;fontFamily=Architects Daughter;fontSource=https%3A%2F%2Ffonts.googleapis.com%2Fcss%3Ffamily%3DArchitects%2BDaughter;fontSize=20;" vertex="1" parent="1qt5ah6O9wsm0eLy9RBL-1">
          <mxGeometry x="1150" y="635" width="150" height="60" as="geometry" />
        </mxCell>
        <mxCell id="1qt5ah6O9wsm0eLy9RBL-47" style="edgeStyle=orthogonalEdgeStyle;curved=1;rounded=0;hachureGap=4;orthogonalLoop=1;jettySize=auto;html=1;strokeColor=#FFFFFF;strokeWidth=2;align=center;verticalAlign=middle;fontFamily=Architects Daughter;fontSource=https%3A%2F%2Ffonts.googleapis.com%2Fcss%3Ffamily%3DArchitects%2BDaughter;fontSize=11;fontColor=default;labelBackgroundColor=default;endArrow=classic;flowAnimation=1;dashed=1;dashPattern=1 2;exitX=0.5;exitY=0.88;exitDx=0;exitDy=0;exitPerimeter=0;" edge="1" parent="1qt5ah6O9wsm0eLy9RBL-1" source="1qt5ah6O9wsm0eLy9RBL-48" target="1qt5ah6O9wsm0eLy9RBL-42">
          <mxGeometry relative="1" as="geometry">
            <mxPoint x="1210" y="310" as="sourcePoint" />
          </mxGeometry>
        </mxCell>
        <mxCell id="1qt5ah6O9wsm0eLy9RBL-48" value="Logs" style="strokeWidth=1;html=1;shape=mxgraph.flowchart.multi-document;whiteSpace=wrap;sketch=1;hachureGap=4;jiggle=2;curveFitting=1;fontFamily=Architects Daughter;fontSource=https%3A%2F%2Ffonts.googleapis.com%2Fcss%3Ffamily%3DArchitects%2BDaughter;fontSize=20;fontColor=default;labelBackgroundColor=default;" vertex="1" parent="1qt5ah6O9wsm0eLy9RBL-1">
          <mxGeometry x="1120" y="261" width="88" height="60" as="geometry" />
        </mxCell>
        <mxCell id="1qt5ah6O9wsm0eLy9RBL-49" style="edgeStyle=orthogonalEdgeStyle;curved=1;rounded=0;hachureGap=4;orthogonalLoop=1;jettySize=auto;html=1;exitX=0.4;exitY=0.1;exitDx=0;exitDy=0;exitPerimeter=0;entryX=0.5;entryY=0;entryDx=0;entryDy=0;entryPerimeter=0;dashed=1;dashPattern=1 2;strokeColor=#FFFFFF;strokeWidth=2;align=center;verticalAlign=middle;fontFamily=Architects Daughter;fontSource=https%3A%2F%2Ffonts.googleapis.com%2Fcss%3Ffamily%3DArchitects%2BDaughter;fontSize=11;fontColor=default;labelBackgroundColor=default;endArrow=classic;flowAnimation=1;" edge="1" parent="1qt5ah6O9wsm0eLy9RBL-1" source="1qt5ah6O9wsm0eLy9RBL-23" target="1qt5ah6O9wsm0eLy9RBL-48">
          <mxGeometry relative="1" as="geometry">
            <Array as="points">
              <mxPoint x="787" y="180" />
              <mxPoint x="1164" y="180" />
            </Array>
          </mxGeometry>
        </mxCell>
      </root>
    </mxGraphModel>
  </diagram>
  <diagram id="M-3fHsiVKu7LLalkdagX" name="SecOps Daily Task">
    <mxGraphModel dx="1224" dy="868" grid="1" gridSize="10" guides="1" tooltips="1" connect="1" arrows="1" fold="1" page="1" pageScale="1" pageWidth="850" pageHeight="1100" math="0" shadow="0">
      <root>
        <mxCell id="0" />
        <mxCell id="1" parent="0" />
        <mxCell id="QvRca9X4bWQJnYWFG_iW-1" value="Security Monitoring" style="rounded=1;whiteSpace=wrap;html=1;sketch=1;hachureGap=4;jiggle=2;curveFitting=1;fontFamily=Architects Daughter;fontSource=https%3A%2F%2Ffonts.googleapis.com%2Fcss%3Ffamily%3DArchitects%2BDaughter;fontSize=20;" vertex="1" parent="1">
          <mxGeometry x="310" y="260" width="220" height="60" as="geometry" />
        </mxCell>
        <mxCell id="QvRca9X4bWQJnYWFG_iW-2" value="Incident Response" style="rounded=1;whiteSpace=wrap;html=1;sketch=1;hachureGap=4;jiggle=2;curveFitting=1;fontFamily=Architects Daughter;fontSource=https%3A%2F%2Ffonts.googleapis.com%2Fcss%3Ffamily%3DArchitects%2BDaughter;fontSize=20;" vertex="1" parent="1">
          <mxGeometry x="310" y="360" width="220" height="60" as="geometry" />
        </mxCell>
        <mxCell id="QvRca9X4bWQJnYWFG_iW-3" value="Threat Intelligence" style="rounded=1;whiteSpace=wrap;html=1;sketch=1;hachureGap=4;jiggle=2;curveFitting=1;fontFamily=Architects Daughter;fontSource=https%3A%2F%2Ffonts.googleapis.com%2Fcss%3Ffamily%3DArchitects%2BDaughter;fontSize=20;" vertex="1" parent="1">
          <mxGeometry x="310" y="460" width="220" height="60" as="geometry" />
        </mxCell>
        <mxCell id="QvRca9X4bWQJnYWFG_iW-4" value="Vulnerability Management" style="rounded=1;whiteSpace=wrap;html=1;sketch=1;hachureGap=4;jiggle=2;curveFitting=1;fontFamily=Architects Daughter;fontSource=https%3A%2F%2Ffonts.googleapis.com%2Fcss%3Ffamily%3DArchitects%2BDaughter;fontSize=20;" vertex="1" parent="1">
          <mxGeometry x="310" y="560" width="220" height="60" as="geometry" />
        </mxCell>
        <mxCell id="QvRca9X4bWQJnYWFG_iW-5" value="Security Policy Enforcement" style="rounded=1;whiteSpace=wrap;html=1;sketch=1;hachureGap=4;jiggle=2;curveFitting=1;fontFamily=Architects Daughter;fontSource=https%3A%2F%2Ffonts.googleapis.com%2Fcss%3Ffamily%3DArchitects%2BDaughter;fontSize=20;" vertex="1" parent="1">
          <mxGeometry x="310" y="660" width="220" height="60" as="geometry" />
        </mxCell>
        <mxCell id="QvRca9X4bWQJnYWFG_iW-6" value="Collaboration" style="rounded=1;whiteSpace=wrap;html=1;sketch=1;hachureGap=4;jiggle=2;curveFitting=1;fontFamily=Architects Daughter;fontSource=https%3A%2F%2Ffonts.googleapis.com%2Fcss%3Ffamily%3DArchitects%2BDaughter;fontSize=20;" vertex="1" parent="1">
          <mxGeometry x="310" y="760" width="220" height="60" as="geometry" />
        </mxCell>
        <mxCell id="QvRca9X4bWQJnYWFG_iW-7" value="Security Awareness" style="rounded=1;whiteSpace=wrap;html=1;sketch=1;hachureGap=4;jiggle=2;curveFitting=1;fontFamily=Architects Daughter;fontSource=https%3A%2F%2Ffonts.googleapis.com%2Fcss%3Ffamily%3DArchitects%2BDaughter;fontSize=20;" vertex="1" parent="1">
          <mxGeometry x="310" y="860" width="220" height="60" as="geometry" />
        </mxCell>
        <mxCell id="QvRca9X4bWQJnYWFG_iW-8" value="Proactive Threat Hunting" style="rounded=1;whiteSpace=wrap;html=1;sketch=1;hachureGap=4;jiggle=2;curveFitting=1;fontFamily=Architects Daughter;fontSource=https%3A%2F%2Ffonts.googleapis.com%2Fcss%3Ffamily%3DArchitects%2BDaughter;fontSize=20;" vertex="1" parent="1">
          <mxGeometry x="310" y="960" width="220" height="60" as="geometry" />
        </mxCell>
      </root>
    </mxGraphModel>
  </diagram>
</mxfile>
